<svg width="15" height="14" viewBox="0 0 15 14" fill="none" xmlns="http://www.w3.org/2000/svg">
<path d="M1.16667 0C1.80833 0 2.33333 0.525 2.33333 1.16667V12.8333C2.33333 13.475 1.80833 14 1.16667 14C0.525 14 0 13.475 0 12.8333V1.16667C0 0.525 0.525 0 1.16667 0ZM5.43667 7.95667L12.1683 12.705C12.9383 13.2533 14.0117 12.6933 14.0117 11.7483V2.25167C14.0117 1.30667 12.95 0.758333 12.1683 1.295L5.43667 6.04333C5.28263 6.15085 5.15684 6.29397 5.06998 6.46053C4.98312 6.62708 4.93776 6.81215 4.93776 7C4.93776 7.18785 4.98312 7.37292 5.06998 7.53947C5.15684 7.70603 5.28263 7.84915 5.43667 7.95667Z" fill="white" style="fill:white;fill-opacity:1;"/>
</svg>
