<svg width="40" height="40" viewBox="0 0 40 40" fill="none" xmlns="http://www.w3.org/2000/svg">
<path d="M3.33333 30C3.33333 33.1433 3.33333 34.7133 4.30999 35.69C5.28666 36.6667 6.85666 36.6667 9.99999 36.6667C13.1433 36.6667 14.7133 36.6667 15.69 35.69C16.6667 34.7133 16.6667 33.1433 16.6667 30V10C16.6667 6.85667 16.6667 5.28667 15.69 4.31C14.7133 3.33333 13.1433 3.33333 9.99999 3.33333C6.85666 3.33333 5.28666 3.33333 4.30999 4.31C3.33333 5.28667 3.33333 6.85667 3.33333 10V23.3333M36.6667 10C36.6667 6.85667 36.6667 5.28667 35.69 4.31C34.7133 3.33333 33.1433 3.33333 30 3.33333C26.8567 3.33333 25.2867 3.33333 24.31 4.31C23.3333 5.28667 23.3333 6.85667 23.3333 10V30C23.3333 33.1433 23.3333 34.7133 24.31 35.69C25.2867 36.6667 26.8567 36.6667 30 36.6667C33.1433 36.6667 34.7133 36.6667 35.69 35.69C36.6667 34.7133 36.6667 33.1433 36.6667 30V16.6667" stroke="white" style="stroke:white;stroke-opacity:1;" stroke-width="1.5" stroke-linecap="round"/>
</svg>
